<svg width="24" height="24" viewBox="0 0 24 24" fill="none" xmlns="http://www.w3.org/2000/svg">
<path d="M19.6402 7.5375L16.4902 10.5L19.4902 18.75L17.2402 21L12.759 14.4375L10.4902 16.5V18.75L8.24023 21L6.90898 17.0719L2.99023 15.75L5.24023 13.5H7.49023L9.74023 11.25L2.99023 6.75L5.24023 4.5L13.4902 7.5L16.4621 4.35937L16.3965 4.40625C16.8192 3.98356 17.3925 3.74609 17.9902 3.74609C18.588 3.74609 19.1613 3.98356 19.584 4.40625C20.0067 4.82894 20.2441 5.40222 20.2441 6C20.2441 6.59777 20.0067 7.17106 19.584 7.59375L19.6402 7.5375Z" stroke="black" stroke-width="1.5" stroke-linecap="round" stroke-linejoin="round"/>
</svg>
