<svg width="24" height="24" viewBox="0 0 24 24" fill="none" xmlns="http://www.w3.org/2000/svg">
<path d="M20.25 10.5C20.25 15.0562 15 21.75 12 21.75C9 21.75 3.75 15.0562 3.75 10.5C3.75 8.31196 4.61919 6.21354 6.16637 4.66637C7.71354 3.11919 9.81196 2.25 12 2.25C14.188 2.25 16.2865 3.11919 17.8336 4.66637C19.3808 6.21354 20.25 8.31196 20.25 10.5V10.5Z" stroke="black" stroke-width="1.5" stroke-linecap="round" stroke-linejoin="round"/>
<path d="M9.75 13.875C8.95435 13.875 8.19129 13.5589 7.62868 12.9963C7.06607 12.4337 6.75 11.6706 6.75 10.875V10.5C6.75 10.3011 6.82902 10.1103 6.96967 9.96967C7.11032 9.82902 7.30109 9.75 7.5 9.75C8.29565 9.75 9.05871 10.0661 9.62132 10.6287C10.1839 11.1913 10.5 11.9544 10.5 12.75V13.125C10.5 13.3239 10.421 13.5147 10.2803 13.6553C10.1397 13.796 9.94891 13.875 9.75 13.875V13.875Z" stroke="black" stroke-width="1.5" stroke-linecap="round" stroke-linejoin="round"/>
<path d="M16.5 9.75C16.6989 9.75 16.8897 9.82902 17.0303 9.96967C17.171 10.1103 17.25 10.3011 17.25 10.5V10.875C17.25 11.6706 16.9339 12.4337 16.3713 12.9963C15.8087 13.5589 15.0456 13.875 14.25 13.875C14.0511 13.875 13.8603 13.796 13.7197 13.6553C13.579 13.5147 13.5 13.3239 13.5 13.125V12.75C13.5 11.9544 13.8161 11.1913 14.3787 10.6287C14.9413 10.0661 15.7044 9.75 16.5 9.75Z" stroke="black" stroke-width="1.5" stroke-linecap="round" stroke-linejoin="round"/>
<path d="M10.5 17.25H13.5" stroke="black" stroke-width="1.5" stroke-linecap="round" stroke-linejoin="round"/>
</svg>
