<svg width="24" height="24" viewBox="0 0 24 24" fill="none" xmlns="http://www.w3.org/2000/svg">
<path d="M22 6.9375C22.5178 6.9375 22.9375 6.51777 22.9375 6C22.9375 5.48223 22.5178 5.0625 22 5.0625C21.4822 5.0625 21.0625 5.48223 21.0625 6C21.0625 6.51777 21.4822 6.9375 22 6.9375Z" fill="#24293D"/>
<path d="M22 12.9375C22.5178 12.9375 22.9375 12.5178 22.9375 12C22.9375 11.4822 22.5178 11.0625 22 11.0625C21.4822 11.0625 21.0625 11.4822 21.0625 12C21.0625 12.5178 21.4822 12.9375 22 12.9375Z" fill="#24293D"/>
<path d="M22 18.9375C22.5178 18.9375 22.9375 18.5178 22.9375 18C22.9375 17.4822 22.5178 17.0625 22 17.0625C21.4822 17.0625 21.0625 17.4822 21.0625 18C21.0625 18.5178 21.4822 18.9375 22 18.9375Z" fill="#24293D"/>
</svg>
