<svg width="24" height="24" viewBox="0 0 24 24" fill="none" xmlns="http://www.w3.org/2000/svg">
<path d="M4.85602 11.4282C4.74521 11.2361 4.59767 11.0678 4.4218 10.9328C4.24593 10.7977 4.04519 10.6986 3.83104 10.6412C3.61688 10.5837 3.39351 10.569 3.17367 10.5979C2.95383 10.6268 2.74182 10.6987 2.54977 10.8095C2.35771 10.9203 2.18935 11.0678 2.05432 11.2437C1.91928 11.4195 1.82021 11.6203 1.76275 11.8344C1.70529 12.0486 1.69058 12.272 1.71945 12.4918C1.74832 12.7116 1.82021 12.9236 1.93102 13.1157L5.39976 19.1251C6.30405 20.6571 7.77656 21.7702 9.49714 22.2223C11.2177 22.6745 13.0472 22.4291 14.5878 21.5396C16.1285 20.65 17.2556 19.1883 17.7243 17.4721C18.1929 15.7559 17.9651 13.9242 17.0904 12.3751L15.4966 9.60945C15.2591 9.25125 14.8939 8.99717 14.4754 8.89905C14.057 8.80094 13.6169 8.86619 13.2449 9.08148C12.8729 9.29678 12.5971 9.64589 12.4737 10.0576C12.3504 10.4693 12.3887 10.9126 12.581 11.297" stroke="black" stroke-width="1.5" stroke-linecap="round" stroke-linejoin="round"/>
<path d="M10.0308 13.6404L6.46832 7.47164C6.35752 7.27958 6.20997 7.11123 6.0341 6.97619C5.85824 6.84116 5.6575 6.74208 5.44334 6.68463C5.22919 6.62717 5.00581 6.61246 4.78597 6.64133C4.56613 6.6702 4.35413 6.74209 4.16207 6.85289C3.97001 6.96369 3.80166 7.11124 3.66662 7.28711C3.53159 7.46297 3.43251 7.66371 3.37506 7.87787C3.3176 8.09202 3.30289 8.3154 3.33176 8.53524C3.36063 8.75508 3.43252 8.96708 3.54332 9.15914L7.10582 15.3279" stroke="black" stroke-width="1.5" stroke-linecap="round" stroke-linejoin="round"/>
<path d="M14.0816 13.9031L10.1441 7.07809C9.92033 6.69021 9.55163 6.40711 9.11913 6.29107C8.68662 6.17504 8.22573 6.23556 7.83786 6.45934C7.44998 6.68312 7.16688 7.05181 7.05084 7.48432C6.9348 7.91682 6.99533 8.37771 7.21911 8.76559" stroke="black" stroke-width="1.5" stroke-linecap="round" stroke-linejoin="round"/>
<path d="M9.28161 6.34703L8.31598 4.66891C8.0922 4.28103 7.72351 3.99793 7.291 3.8819C6.8585 3.76586 6.39761 3.82638 6.00973 4.05016C5.62185 4.27394 5.33875 4.64263 5.22272 5.07514C5.10668 5.50764 5.1672 5.96853 5.39098 6.35641L5.61598 6.74079" stroke="black" stroke-width="1.5" stroke-linecap="round" stroke-linejoin="round"/>
<path d="M17.625 17.9529C18.7692 16.9168 19.5243 15.5203 19.7648 13.9955C20.0053 12.4708 19.7166 10.9096 18.9468 9.57164L17.3531 6.81539C17.2423 6.62333 17.0947 6.45498 16.9189 6.31994C16.743 6.18491 16.5423 6.08583 16.3281 6.02838C16.114 5.97092 15.8906 5.95621 15.6707 5.98508C15.4509 6.01395 15.2389 6.08584 15.0468 6.19664C14.8548 6.30744 14.6864 6.45499 14.5514 6.63086C14.4164 6.80672 14.3173 7.00746 14.2598 7.22162C14.2024 7.43577 14.1877 7.65915 14.2165 7.87899C14.2454 8.09883 14.3173 8.31083 14.4281 8.50289" stroke="black" stroke-width="1.5" stroke-linecap="round" stroke-linejoin="round"/>
<path d="M14.6439 8.87789L11.9908 4.28414C11.767 3.89627 11.3983 3.61317 10.9658 3.49713C10.5333 3.38109 10.0724 3.44162 9.68454 3.66539C9.29666 3.88917 9.01356 4.25787 8.89752 4.69037C8.78148 5.12288 8.84201 5.58377 9.06578 5.97164" stroke="black" stroke-width="1.5" stroke-linecap="round" stroke-linejoin="round"/>
<path d="M16.5748 1.05957L16.1904 2.50332" stroke="black" stroke-width="1.5" stroke-linecap="round" stroke-linejoin="round"/>
<path d="M19.4152 2.38135L18.5527 3.60947" stroke="black" stroke-width="1.5" stroke-linecap="round" stroke-linejoin="round"/>
<path d="M21.6188 4.58447L20.3906 5.44697" stroke="black" stroke-width="1.5" stroke-linecap="round" stroke-linejoin="round"/>
</svg>
