<svg width="24" height="24" viewBox="0 0 24 24" fill="none" xmlns="http://www.w3.org/2000/svg">
<path d="M21 7.19073L16.8469 3.02823C16.5672 2.74147 16.1878 2.57358 15.7875 2.55948C15.5844 2.5548 15.3824 2.59145 15.1938 2.66719C15.0053 2.74293 14.8341 2.8562 14.6906 3.0001L12.2156 5.46573L3.44063 14.2501C3.30084 14.3888 3.18993 14.5539 3.1143 14.7357C3.03867 14.9175 2.99983 15.1125 3 15.3095V19.5001C3 19.8979 3.15804 20.2795 3.43934 20.5608C3.72064 20.8421 4.10218 21.0001 4.5 21.0001H8.69063C9.08798 20.9984 9.46864 20.8401 9.75 20.5595L21 9.30948C21.2783 9.02708 21.4342 8.64655 21.4342 8.2501C21.4342 7.85366 21.2783 7.47312 21 7.19073ZM18 10.1907L13.8094 6.0001L15.75 4.05948L19.9406 8.2501L18 10.1907Z" fill="black"/>
</svg>
