<svg width="24" height="24" viewBox="0 0 24 24" fill="none" xmlns="http://www.w3.org/2000/svg">
<path d="M12 21C16.9706 21 21 16.9706 21 12C21 7.02944 16.9706 3 12 3C7.02944 3 3 7.02944 3 12C3 16.9706 7.02944 21 12 21Z" stroke="black" stroke-width="1.5" stroke-linecap="round" stroke-linejoin="round"/>
<path d="M8.625 11.0625C9.14277 11.0625 9.5625 10.6428 9.5625 10.125C9.5625 9.60723 9.14277 9.1875 8.625 9.1875C8.10723 9.1875 7.6875 9.60723 7.6875 10.125C7.6875 10.6428 8.10723 11.0625 8.625 11.0625Z" fill="black"/>
<path d="M14.25 10.125H16.5" stroke="black" stroke-width="1.5" stroke-linecap="round" stroke-linejoin="round"/>
<path d="M15.8996 14.25C15.5031 14.9331 14.9342 15.5 14.2498 15.8941C13.5653 16.2882 12.7894 16.4956 11.9996 16.4956C11.2098 16.4956 10.4339 16.2882 9.74945 15.8941C9.06501 15.5 8.49609 14.9331 8.09961 14.25" stroke="black" stroke-width="1.5" stroke-linecap="round" stroke-linejoin="round"/>
</svg>
