<svg width="24" height="24" viewBox="0 0 24 24" fill="none" xmlns="http://www.w3.org/2000/svg">
<path d="M12.1406 18.0281C12.2829 18.4141 12.5282 18.7536 12.8499 19.0099C13.1716 19.2661 13.5574 19.4293 13.9653 19.4817C14.3733 19.5341 14.7878 19.4736 15.1638 19.3069C15.5398 19.1402 15.8629 18.8736 16.098 18.5361C16.3331 18.1986 16.4712 17.8031 16.4973 17.3926C16.5233 16.9821 16.4364 16.5724 16.2459 16.2078C16.0554 15.8433 15.7686 15.538 15.4167 15.325C15.0648 15.1121 14.6613 14.9997 14.25 15H3.75" stroke="black" stroke-width="1.5" stroke-linecap="round" stroke-linejoin="round"/>
<path d="M9.14062 5.97188C9.28287 5.58595 9.52817 5.2464 9.84988 4.99013C10.1716 4.73386 10.5574 4.57067 10.9653 4.51831C11.3733 4.46595 11.7878 4.52641 12.1638 4.69313C12.5398 4.85985 12.8629 5.12644 13.098 5.46393C13.3331 5.80143 13.4712 6.1969 13.4973 6.60738C13.5233 7.01786 13.4364 7.42763 13.2459 7.79215C13.0554 8.15668 12.7686 8.46201 12.4167 8.67496C12.0648 8.88791 11.6613 9.00033 11.25 9H2.25" stroke="black" stroke-width="1.5" stroke-linecap="round" stroke-linejoin="round"/>
<path d="M17.3906 8.97188C17.5329 8.58595 17.7782 8.2464 18.0999 7.99013C18.4216 7.73386 18.8074 7.57067 19.2153 7.51831C19.6233 7.46595 20.0378 7.52641 20.4138 7.69313C20.7898 7.85985 21.1129 8.12644 21.348 8.46393C21.5831 8.80143 21.7212 9.1969 21.7473 9.60738C21.7733 10.0179 21.6864 10.4276 21.4959 10.7922C21.3054 11.1567 21.0186 11.462 20.6667 11.675C20.3148 11.8879 19.9113 12.0003 19.5 12H3" stroke="black" stroke-width="1.5" stroke-linecap="round" stroke-linejoin="round"/>
</svg>
